<mxfile host="Electron" agent="Mozilla/5.0 (Macintosh; Intel Mac OS X 10_15_7) AppleWebKit/537.36 (KHTML, like Gecko) draw.io/28.0.4 Chrome/138.0.7204.97 Electron/37.2.1 Safari/537.36" version="28.0.4" pages="1">
  <diagram id="0b2f3feb1da54007" name="Decision Tree Flowchart Td">
    <mxGraphModel dx="706" dy="604" grid="1" gridSize="10" guides="1" tooltips="1" connect="1" arrows="1" fold="1" page="1" pageScale="1" pageWidth="827" pageHeight="1169" math="0" shadow="0">
      <root>
        <mxCell id="0" />
        <mxCell id="1" parent="0" />
        <UserObject label="" mermaidData="{&quot;data&quot;:&quot;flowchart TD \n    %% Subgroup: Requirement Definition\n    subgraph Requirement_Definition[\&quot;Requirement Definition\&quot;]\n        A1[\&quot;Is real-time or near real-time message delivery required?\&quot;]\n        A1:::decision\n        A2[\&quot;Batch or email solutions\&quot;]\n        A2:::leaf\n    end\n\n    %% Subgroup: Message Pattern\n    subgraph Message_Pattern[\&quot;Message Pattern\&quot;]\n        B1[\&quot;Point-to-point - one sender to one receiver?\&quot;]\n        B1:::decision\n        B2[\&quot;Publish-Subscribe - one sender to many receivers?\&quot;]\n        B2:::decision\n    end\n\n    %% Subgroup: Point-to-Point Options\n    subgraph Point_to_Point[\&quot;Point to Point Messaging\&quot;]\n        C1[\&quot;Is message durability critical?\&quot;]\n        C1:::decision\n        C2[\&quot;Persistent queue: RabbitMQ, SQS, IBM MQ\&quot;]\n        C2:::leaf\n        C3[\&quot;Lightweight queue or direct socket\&quot;]\n        C3:::leaf\n    end\n\n    %% Subgroup: Pub-Sub Options\n    subgraph Pub_Sub[\&quot;Publish Subscribe Messaging\&quot;]\n        D1[\&quot;High throughput and scalability needed?\&quot;]\n        D1:::decision\n        D2[\&quot;Kafka, Pulsar, Kinesis\&quot;]\n        D2:::leaf\n        D3[\&quot;RabbitMQ, MQTT, Google Pub/Sub\&quot;]\n        D3:::leaf\n    end\n\n    %% Subgroup: Integration &amp; Specialization\n    subgraph Integration_Env[\&quot;Integration and Environment\&quot;]\n        E1[\&quot;Cloud-native or managed service preferred?\&quot;]\n        E1:::decision\n        E2[\&quot;AWS SNS SQS, Azure Service Bus, Google Pub/Sub\&quot;]\n        E2:::leaf\n        E3[\&quot;On-premise or self-hosted: RabbitMQ, Kafka, IBM MQ\&quot;]\n        E3:::leaf\n        F1[\&quot;Targeting IoT or constrained devices?\&quot;]\n        F1:::decision\n        F2[\&quot;MQTT, NATS\&quot;]\n        F2:::leaf\n        F3[\&quot;General messaging system\&quot;]\n        F3:::leaf\n    end\n\n    %% Subgroup: Non-Functional\n    subgraph Non_Functional[\&quot;Non-Functional Requirements\&quot;]\n        G1[\&quot;Ultra-low latency or high reliability required?\&quot;]\n        G1:::decision\n        G2[\&quot;Solace, Kafka, IBM MQ\&quot;]\n        G2:::leaf\n        G3[\&quot;Standard solutions\&quot;]\n        G3:::leaf\n    end\n\n    %% Connections\n    A1 -- \&quot;No\&quot; --&gt; A2\n    A1 -- \&quot;Yes\&quot; --&gt; B1\n    B1 -- \&quot;Yes\&quot; --&gt; C1\n    B1 -- \&quot;No\&quot; --&gt; B2\n    C1 -- \&quot;Yes\&quot; --&gt; C2\n    C1 -- \&quot;No\&quot; --&gt; C3\n    B2 -- \&quot;Yes\&quot; --&gt; D1\n    B2 -- \&quot;No\&quot; --&gt; D3\n\n    D2 --&gt; E1\n    D3 --&gt; E1\n    C2 --&gt; E1\n    C3 --&gt; E1\n\n    E1 -- \&quot;Yes\&quot; --&gt; E2\n    E1 -- \&quot;No\&quot; --&gt; E3\n\n    E2 --&gt; F1\n    E3 --&gt; F1\n    F1 -- \&quot;Yes\&quot; --&gt; F2\n    F1 -- \&quot;No\&quot; --&gt; F3\n\n    F2 --&gt; G1\n    F3 --&gt; G1\n    G1 -- \&quot;Yes\&quot; --&gt; G2\n    G1 -- \&quot;No\&quot; --&gt; G3\n\n    %% Styles\n    classDef decision fill:#49f,stroke:#333,stroke-width:2px;\n    classDef leaf fill:#bf7d0,stroke:#333,stroke-width:1px;\n    classDef subgroup fill:#30e7ff,stroke:#6366f1,stroke-width:2px;&quot;}" id="4aa8d044578b4c5b">
          <mxCell style="shape=image;noLabel=1;verticalAlign=top;imageAspect=1;image=data:image/svg+xml,PHN2ZyB3aWR0aD0iMjAwIiBoZWlnaHQ9IjIwMCIgeG1sbnM9Imh0dHA6Ly93d3cudzMub3JnLzIwMDAvc3ZnIj48cmVjdCB3aWR0aD0iMjAwIiBoZWlnaHQ9IjIwMCIgZmlsbD0iI2Y5ZjlmOSIgc3Ryb2tlPSIjY2NjIi8+PHRleHQgeD0iMTAwIiB5PSIxMDAiIHRleHQtYW5jaG9yPSJtaWRkbGUiIGZvbnQtZmFtaWx5PSJBcmlhbCIgZm9udC1zaXplPSIxNCIgZmlsbD0iIzMzMyI+TWVybWFpZCBEaWFncmFtPC90ZXh0Pjwvc3ZnPg==;" vertex="1" parent="1">
            <mxGeometry x="260" y="130" width="200" height="200" as="geometry" />
          </mxCell>
        </UserObject>
      </root>
    </mxGraphModel>
  </diagram>
</mxfile>